PathFileType	4	(X/Y/Z)	Patient4_TMGait_0pt4_01_left_10.trc.trc
DataRate	CameraRate	NumFrames	NumMarkers	Units	OrigDataRate	OrigDataStartFrame	OrigNumFrames
74.074074074074	74.074074074074	5	33	mm	74.074074074074	71	       141
Frame#	Time	Sacral			L.Shoulder			Chest			R.Shoulder			Neck			R.ASIS			L.ASIS			R.Thigh.Superior			R.Thigh.Lateral			R.Thigh.Inferior			R.Patella			L.Thigh.Superior			L.Thigh.Lateral			L.Thigh.Inferior			L.Patella			L.Shank.Superior			L.Shank.Lateral			L.Shank.Inferior			R.Shank.Superior			R.Shank.Lateral			R.Shank.Inferior			R.Heel			R.Midfoot.Superior			R.Midfoot.Lateral			R.Toe			L.Heel			L.Midfoot.Lateral			L.Midfoot.Superior			L.Toe			L.Elbow			L.Wrist			R.Elbow			R.Wrist			
		X1	Y1	Z1	X2	Y2	Z2	X3	Y3	Z3	X4	Y4	Z4	X5	Y5	Z5	X6	Y6	Z6	X7	Y7	Z7	X8	Y8	Z8	X9	Y9	Z9	X10	Y10	Z10	X11	Y11	Z11	X12	Y12	Z12	X13	Y13	Z13	X14	Y14	Z14	X15	Y15	Z15	X16	Y16	Z16	X17	Y17	Z17	X18	Y18	Z18	X19	Y19	Z19	X20	Y20	Z20	X21	Y21	Z21	X22	Y22	Z22	X23	Y23	Z23	X24	Y24	Z24	X25	Y25	Z25	X26	Y26	Z26	X27	Y27	Z27	X28	Y28	Z28	X29	Y29	Z29	X30	Y30	Z30	X31	Y31	Z31	X32	Y32	Z32	X33	Y33	Z33	

71	12.925000000000	782.132252477213	1008.868964044219	447.073775811315	999.470548476294	1427.177441975812	270.744355121917	1071.738754342963	1365.031803900198	449.162152150916	963.661283408149	1448.121058674838	604.403198355804	958.070688723617	1497.117879816248	421.131713034149	996.695452012511	951.486644259354	593.404610743293	1015.608497494615	960.759925270576	316.328933422031	1064.577512372092	765.560964535198	569.222379980200	1010.663562113180	648.490737673282	639.317433218397	1095.763511399450	603.460716177152	559.797902284833	1123.805224663932	521.587972187538	577.093485149330	1020.504875179254	735.263990782116	349.815474999586	911.577582116807	635.156454074723	283.919879761744	974.086147290364	545.870597241582	350.905318740031	960.682255329576	481.019238213344	361.139378577314	931.125987676352	412.938916632425	353.690352761689	833.709096070316	304.251913273640	303.491118613323	874.560922083055	191.396059686327	379.354593779048	1105.594700385542	434.802022055339	587.877599075627	1049.474143700996	323.628623013270	653.110413865560	1115.222017196285	234.798973186446	601.210240969175	1016.771375559899	48.618377588283	577.842854931986	1180.928862328998	119.469643695993	608.540116705855	1103.973270849214	46.014796237973	648.580194585588	1306.896063950101	82.393970454081	632.074007578589	738.532190596499	39.467426522522	424.786809700752	813.554631977750	35.486690480386	345.474571249140	897.333250764048	95.370548198596	372.406213653598	1025.852307492748	40.006118211936	347.268170782574	1057.976376206010	1088.653328845284	139.845395012216	1297.370782379001	987.252877386336	154.993239573587	825.838595573339	1129.786715780749	713.317517983733	830.196810750522	867.677480415634	718.415334281585	
72	12.938500000000	782.975301737852	1007.772854603112	448.734358186679	998.836123421795	1426.346494707136	272.325558304556	1071.536345170257	1364.356677217118	450.654151579592	963.464168777312	1447.268315547517	606.033091006391	957.513961600754	1496.231960338524	422.754295192988	997.517097293398	950.118557237393	594.871371026588	1016.397489613602	960.215361840446	317.722067377921	1063.735759532843	762.623776471328	570.917426394332	1007.569248219801	645.637692032815	639.634169972288	1092.791543639876	600.582752874221	560.349357727577	1119.842255460043	519.627546133068	576.491676763212	1019.739080970570	734.333283100378	350.480627098797	909.570462007448	635.074232865868	284.751164891224	971.444607939692	545.210583153091	351.303728515582	957.595077932708	480.313266167477	361.412020270196	927.557176637878	412.502481759431	353.919655035210	829.152655794081	304.540393312026	303.775155254974	869.758497328904	191.243993024118	379.269270739559	1103.094900529236	432.673481327502	587.101066432028	1048.302053854315	320.267559380828	651.230850427208	1115.812499256000	232.767726175139	599.228113449928	1020.086092951126	46.028888555448	574.319683087155	1183.589033429409	117.663073826270	606.316958314600	1106.683984173281	44.155522186971	645.651771141303	1309.487326098842	81.348064228404	630.551505507064	733.093729455007	39.521401260151	424.710398608047	808.109989119181	35.482120235154	345.450868296587	891.886450042456	95.371899692554	372.348085806696	1020.371197223684	39.963740548196	347.247871078815	1057.452430772323	1087.528498094797	142.040055183645	1296.140468606013	984.159017961676	157.685177822914	828.256265767619	1127.873409634668	715.627028004374	837.069292374342	865.925035351159	720.603121543056	
73	12.952000000000	783.991124669708	1006.502652344247	450.648118728141	997.972555840024	1425.469114828286	274.087280909857	1071.282093330439	1363.701740199258	452.282983451492	963.235252372309	1446.311025478125	607.884560568622	956.829135240873	1495.269785769982	424.593204122900	998.671406710485	948.649526998331	596.423661054322	1017.331825456717	959.640607010809	319.233092483366	1063.634088054636	759.889667557214	572.637055773917	1005.281574397572	642.815576062744	639.796109208138	1090.792118858958	597.964885951612	560.861030496444	1116.652051147221	517.508645849809	575.819797982613	1019.204080195174	733.374437695278	351.206069117429	907.776360728280	634.956905162828	285.702230309104	969.056629429112	544.507157276265	351.797312763141	954.785040346771	479.495462896024	361.797271376082	924.205371305006	411.975381001658	354.251392758363	824.727080283152	304.822733965603	304.175108108362	865.004377385520	191.037141043484	379.269353623479	1100.787328555636	430.239439540256	586.178501535030	1046.484645426017	317.115600596033	649.263421920770	1114.886584824172	230.447518977796	597.107912720804	1020.302765005408	44.179159785990	570.874103805696	1183.701494868615	115.350597499772	604.073943026439	1106.288246458362	42.518830014822	642.777530712749	1309.200465132423	78.878449048574	628.893827435488	727.643122620486	39.547117418348	424.631241951847	802.663865559565	35.467300200897	345.432934137572	886.429610129973	95.378989735046	372.307250661762	1014.893538877483	39.916479420720	347.220284724638	1056.410480395512	1086.264362210426	144.383940696657	1294.177771896266	980.299505718203	160.234474736273	831.013305120332	1125.750214892200	718.267226328056	845.093991373747	864.099798551721	723.164665705797	
74	12.965500000000	785.143277355533	1005.088182891852	452.795305760836	996.909890273590	1424.560615332202	276.036232124955	1070.988131174327	1363.078410147561	454.060068318756	962.985681439925	1445.266151170223	609.962907486555	956.044252592275	1494.254819471043	426.649346890884	1000.134320814832	947.114236621433	598.058170996405	1018.377639821610	959.042879690905	320.861443795161	1064.286069823764	757.402949313014	574.316940705556	1003.875901067084	640.108571745150	639.831354250517	1089.791379167952	595.659169436222	561.305585925607	1114.295661217548	515.299164315313	575.058722045272	1018.930114916931	732.405909792868	351.995701973300	906.267642493380	634.786346162879	286.781293260972	967.025728779167	543.756562446926	352.401216055730	952.376891103142	478.539051670844	362.303564512641	921.161851018768	411.332451241519	354.703012386459	820.507524926984	305.099200644911	304.706368281140	860.314678505671	190.765846503631	379.368059063202	1098.813344369710	427.591527487469	585.145445293375	1044.312012975320	314.202638592968	647.356123430827	1112.772081890730	227.879783297685	594.952609258257	1017.875563935146	42.924411330772	567.728308816624	1181.671535495063	112.633674375932	601.916195078124	1103.307895029479	41.082205962961	640.139172875835	1306.539907240414	75.245260192290	627.157333256286	722.178394535083	39.562469306000	424.551794539832	797.218539476254	35.445248372835	345.422766371239	880.970709515104	95.393167305451	372.283525858956	1009.427102855748	39.861435473077	347.181967995719	1054.853757600850	1084.864058220777	146.896890569747	1291.451726528094	975.664294129948	162.592644963547	834.082521820489	1123.449189386035	721.200588008396	854.195608502542	862.273898905508	726.091869599313	
75	12.979000000000	786.391107910233	1003.578318903428	455.150910571942	995.686545967501	1423.655463954937	278.178605245955	1070.670626820240	1362.507629512104	455.994026364897	962.736095949478	1444.165712709565	612.270938315003	955.194063985751	1493.227135353366	428.923284651586	1001.870714739257	945.567673103623	599.768989448797	1019.494826150145	958.443919624896	322.600362345247	1065.655184247244	755.208901557730	575.890943233403	1003.390130156635	637.615381275239	639.792228595210	1089.757265847518	593.709957764671	561.663285223180	1112.786153685654	513.085279936905	574.216269508880	1018.949180405507	731.459324308066	352.853287977346	905.127050715540	634.548906842560	287.994180429487	965.477571783335	542.963284498498	353.123620033229	950.520532935206	477.422624285360	362.923292751983	918.534295641889	410.555188412620	355.280628237582	816.578988904616	305.383918482559	305.378200803229	855.719432455023	190.433074624685	379.566075490643	1097.284972851632	424.856802598139	584.062612490805	1042.081620957717	311.579597076830	645.656862546341	1109.845753286569	225.167239831521	592.873391287775	1013.398968283988	42.140640433751	565.054587411334	1177.989055224032	109.693498565192	599.942940953161	1098.380725053597	39.850570472073	637.882350865656	1302.098301128305	70.836637351797	625.426748143564	716.701180921712	39.607973451887	424.473857510939	791.778737044947	35.426550807020	345.421575395406	875.527201949750	95.417192088091	372.270711251681	1003.981882454259	39.795763878221	347.128623026012	1052.792891067741	1083.352106490331	149.603339117097	1287.914461096522	970.250710292569	164.725017068470	837.455973788084	1121.012656898688	724.390124267077	864.296154743702	860.528449407250	729.365637554132	
